<svg width="163" height="161" viewBox="0 0 163 161" fill="none" xmlns="http://www.w3.org/2000/svg">
<g clip-path="url(#clip0_6661_22142)">
<path d="M7 0H156C159.866 0 163 3.13401 163 7V154C163 157.866 159.866 161 156 161H7C3.134 161 0 157.866 0 154V7C0 3.13401 3.134 0 7 0Z" fill="black"/>
<path d="M116.708 59.1994C116.708 62.8277 116.013 66.3083 114.625 69.6413C113.278 72.9742 111.426 76.0962 109.07 79.0072C106.755 81.9183 104.062 84.5551 100.99 86.9177C97.9181 89.2803 94.6567 91.3054 91.206 92.9929C87.7553 94.6805 84.2415 95.9884 80.6645 96.9165C77.0875 97.8447 73.6368 98.3088 70.3123 98.3088C69.9757 98.3088 69.618 98.3088 69.2392 98.3088C68.9026 98.3088 68.5659 98.2666 68.2293 98.1822L68.9236 94.7016C71.6589 94.2375 74.4153 93.5414 77.1927 92.6132C80.0122 91.6429 82.7055 90.4616 85.2725 89.0694C87.8395 87.6349 90.2381 85.9895 92.4685 84.1332C94.6988 82.2347 96.6346 80.1464 98.2758 77.8681C99.917 75.5477 101.2 73.0375 102.126 70.3374C103.094 67.5951 103.578 64.6629 103.578 61.5409C103.578 58.5455 103.094 55.7821 102.126 53.2508C101.158 50.7194 99.7908 48.5256 98.0233 46.6693C96.2979 44.813 94.2149 43.3785 91.7741 42.366C89.3334 41.3113 86.6191 40.7839 83.6313 40.7839C80.5172 40.7839 77.319 41.1425 74.0366 41.8597C70.7963 42.5769 67.577 43.5895 64.3788 44.8973C61.1805 46.2052 58.0875 47.8084 55.0997 49.7069C52.1539 51.5632 49.4396 53.6305 46.9568 55.9087L45 53.7571C47.8616 50.8882 51.1229 48.2092 54.7841 45.72C58.4873 43.1887 62.3588 40.9948 66.3987 39.1385C70.4386 37.24 74.5205 35.7423 78.6446 34.6454C82.8107 33.5485 86.8085 33 90.6379 33C94.2991 33 97.7077 33.6539 100.864 34.9618C104.062 36.2275 106.818 38.0205 109.133 40.3409C111.49 42.6613 113.341 45.4247 114.688 48.6311C116.034 51.8374 116.708 55.3602 116.708 59.1994ZM65.3887 122.04L52.3854 126.85V55.9087L65.3887 51.289V122.04Z" fill="#41C4AB"/>
</g>
<defs>
<clipPath id="clip0_6661_22142">
<rect width="163" height="161" fill="white"/>
</clipPath>
</defs>
</svg>
